<svg xmlns="http://www.w3.org/2000/svg" viewBox="0 0 512 512" width="100%" height="100%">
  <!-- Rounded-square icon background with transparent corners -->
  <rect width="512" height="512" rx="112" fill="#FFF6E8"/>

  <!-- Magic Sparkle & Rays -->
  <!-- Left accent angled pill ray -->
  <rect x="168" y="132" width="36" height="15" rx="7.5" transform="rotate(-48 186 139.5)" fill="#FFBA24"/>
  
  <!-- Right accent angled pill ray -->
  <rect x="308" y="132" width="36" height="15" rx="7.5" transform="rotate(48 326 139.5)" fill="#FFBA24"/>

  <!-- Central 4-pointed radiant star -->
  <path d="M 256,108 C 259,146 276,164 308,172 C 276,180 259,198 256,238 C 253,198 236,180 204,172 C 236,164 253,146 256,108 Z" fill="#FFBA24"/>

  <!-- Left orange swoosh emerging from center crease -->
  <path d="M 248,288 C 236,258 206,218 168,188 C 158,180 151,189 158,198 C 182,230 216,268 240,296 C 245,298 249,294 248,288 Z" fill="#F46F22"/>

  <!-- Right blue swoosh emerging from center crease -->
  <path d="M 264,288 C 276,258 306,218 344,188 C 354,180 361,189 354,198 C 330,230 296,268 272,296 C 267,298 263,294 264,288 Z" fill="#35A0F8"/>

  <!-- Open Book Base/Spine (Dark Navy Blue) -->
  <path d="M 78,348 C 130,374 192,386 242,379 C 248,377 253,382 256,386 C 259,382 264,377 270,379 C 320,386 382,374 434,348 C 439,356 436,366 428,371 C 374,398 312,406 256,394 C 200,406 138,398 84,371 C 76,366 73,356 78,348 Z" fill="#17325B"/>
  
  <!-- Center spine bottom circular knot -->
  <circle cx="256" cy="386" r="23" fill="#17325B"/>

  <!-- Left Page: Under-layer / thickness shadow (Deep Warm Amber) -->
  <path d="M 256,370 C 210,364 142,354 84,350 C 80,350 78,354 80,358 C 135,382 198,390 256,378 Z" fill="#E68E0E"/>

  <!-- Left Page: Main golden-yellow surface -->
  <path d="M 256,370 C 212,336 142,252 86,258 C 78,259 74,266 74,274 C 74,298 78,332 84,350 C 142,354 210,364 256,370 Z" fill="#FFBA2E"/>

  <!-- Left Page: Top page slope highlight -->
  <path d="M 256,370 C 212,336 142,252 86,258 C 144,260 214,344 256,370 Z" fill="#FFCF68" opacity="0.35"/>

  <!-- Right Page: Under-layer / thickness shadow (Deep Royal Blue) -->
  <path d="M 256,370 C 302,364 370,354 428,350 C 432,350 434,354 432,358 C 377,382 314,390 256,378 Z" fill="#1B6DC9"/>

  <!-- Right Page: Main vibrant sky blue surface -->
  <path d="M 256,370 C 300,336 370,252 426,258 C 434,259 438,266 438,274 C 438,298 434,332 428,350 C 370,354 302,364 256,370 Z" fill="#379FF6"/>

  <!-- Right Page: Top page slope highlight -->
  <path d="M 256,370 C 300,336 370,252 426,258 C 368,260 298,344 256,370 Z" fill="#75BCF9" opacity="0.35"/>
</svg>
